HIERARCHY
ROOT Hips
{
  OFFSET 0.000 61.434 0.000
  CHANNELS 6 Xposition Yposition Zposition Zrotation Xrotation Yrotation
  JOINT LeftUpLeg
  {
    OFFSET 7.079 0.380 3.003
    CHANNELS 6 Xposition Yposition Zposition Zrotation Xrotation Yrotation
    JOINT LeftLeg
    {
      OFFSET 0.000 -27.611 0.000
      CHANNELS 6 Xposition Yposition Zposition Zrotation Xrotation Yrotation
      JOINT LeftFoot
      {
        OFFSET 0.000 -34.203 0.000
        CHANNELS 6 Xposition Yposition Zposition Zrotation Xrotation Yrotation
        End Site
        {
          OFFSET 0.000 0.000 8.564
        }
      }
    }
  }
  JOINT RightUpLeg
  {
    OFFSET -7.079 0.380 3.003
    CHANNELS 6 Xposition Yposition Zposition Zrotation Xrotation Yrotation
    JOINT RightLeg
    {
      OFFSET 0.000 -27.611 0.000
      CHANNELS 6 Xposition Yposition Zposition Zrotation Xrotation Yrotation
      JOINT RightFoot
      {
        OFFSET 0.000 -34.203 0.000
        CHANNELS 6 Xposition Yposition Zposition Zrotation Xrotation Yrotation
        End Site
        {
          OFFSET 0.000 0.000 8.564
        }
      }
    }
  }
  JOINT Spine
  {
    OFFSET 0.000 30.523 0.000
    CHANNELS 6 Xposition Yposition Zposition Zrotation Xrotation Yrotation
    JOINT Spine1
    {
      OFFSET 0.000 22.256 0.000
      CHANNELS 6 Xposition Yposition Zposition Zrotation Xrotation Yrotation
      JOINT LeftShoulder
      {
        OFFSET 1.097 -0.431 0.769
        CHANNELS 6 Xposition Yposition Zposition Zrotation Xrotation Yrotation
        JOINT LeftArm
        {
          OFFSET 13.535 0.000 0.000
          CHANNELS 6 Xposition Yposition Zposition Zrotation Xrotation Yrotation
          JOINT LeftForeArm
          {
            OFFSET 19.536 0.000 0.000
            CHANNELS 6 Xposition Yposition Zposition Zrotation Xrotation Yrotation
            JOINT LeftHand
            {
              OFFSET 17.663 0.000 0.000
              CHANNELS 6 Xposition Yposition Zposition Zrotation Xrotation Yrotation
              JOINT LeftHandThumb1
              {
                OFFSET 4.877 -1.044 3.608
                CHANNELS 6 Xposition Yposition Zposition Zrotation Xrotation Yrotation
                JOINT LeftHandThumb2
                {
                  OFFSET 2.665 0.000 0.000
                  CHANNELS 6 Xposition Yposition Zposition Zrotation Xrotation Yrotation
                  JOINT LeftHandThumb3
                  {
                    OFFSET 2.543 0.000 0.000
                    CHANNELS 6 Xposition Yposition Zposition Zrotation Xrotation Yrotation
                    End Site
                    {
                      OFFSET 2.667 0.000 0.000
                    }
                  }
                }
              }
              JOINT LeftHandIndex1
              {
                OFFSET 9.232 -0.301 2.144
                CHANNELS 6 Xposition Yposition Zposition Zrotation Xrotation Yrotation
                JOINT LeftHandIndex2
                {
                  OFFSET 4.225 0.000 -0.000
                  CHANNELS 6 Xposition Yposition Zposition Zrotation Xrotation Yrotation
                  JOINT LeftHandIndex3
                  {
                    OFFSET 2.654 -0.000 0.000
                    CHANNELS 6 Xposition Yposition Zposition Zrotation Xrotation Yrotation
                    End Site
                    {
                      OFFSET 1.958 0.000 0.000
                    }
                  }
                }
              }
              JOINT LeftHandMiddle1
              {
                OFFSET 8.920 0.000 0.000
                CHANNELS 6 Xposition Yposition Zposition Zrotation Xrotation Yrotation
                JOINT LeftHandMiddle2
                {
                  OFFSET 4.863 0.000 0.000
                  CHANNELS 6 Xposition Yposition Zposition Zrotation Xrotation Yrotation
                  JOINT LeftHandMiddle3
                  {
                    OFFSET 2.765 0.000 0.000
                    CHANNELS 6 Xposition Yposition Zposition Zrotation Xrotation Yrotation
                    End Site
                    {
                      OFFSET 2.006 0.000 0.000
                    }
                  }
                }
              }
              JOINT LeftHandRing1
              {
                OFFSET 8.689 -0.126 -2.087
                CHANNELS 6 Xposition Yposition Zposition Zrotation Xrotation Yrotation
                JOINT LeftHandRing2
                {
                  OFFSET 4.538 0.000 0.000
                  CHANNELS 6 Xposition Yposition Zposition Zrotation Xrotation Yrotation
                  JOINT LeftHandRing3
                  {
                    OFFSET 2.305 0.000 0.000
                    CHANNELS 6 Xposition Yposition Zposition Zrotation Xrotation Yrotation
                    End Site
                    {
                      OFFSET 1.923 0.000 0.000
                    }
                  }
                }
              }
              JOINT LeftHandPinky1
              {
                OFFSET 8.391 -0.817 -3.758
                CHANNELS 6 Xposition Yposition Zposition Zrotation Xrotation Yrotation
                JOINT LeftHandPinky2
                {
                  OFFSET 3.044 0.000 0.000
                  CHANNELS 6 Xposition Yposition Zposition Zrotation Xrotation Yrotation
                  JOINT LeftHandPinky3
                  {
                    OFFSET 1.975 0.000 0.000
                    CHANNELS 6 Xposition Yposition Zposition Zrotation Xrotation Yrotation
                    End Site
                    {
                      OFFSET 1.667 -0.000 0.000
                    }
                  }
                }
              }
            }
          }
        }
      }
      JOINT RightShoulder
      {
        OFFSET -1.097 -0.431 0.769
        CHANNELS 6 Xposition Yposition Zposition Zrotation Xrotation Yrotation
        JOINT RightArm
        {
          OFFSET -13.535 0.000 0.000
          CHANNELS 6 Xposition Yposition Zposition Zrotation Xrotation Yrotation
          JOINT RightForeArm
          {
            OFFSET -19.536 0.000 0.000
            CHANNELS 6 Xposition Yposition Zposition Zrotation Xrotation Yrotation
            JOINT RightHand
            {
              OFFSET -17.663 0.000 0.000
              CHANNELS 6 Xposition Yposition Zposition Zrotation Xrotation Yrotation
              JOINT RightHandThumb1
              {
                OFFSET -4.877 -1.044 3.608
                CHANNELS 6 Xposition Yposition Zposition Zrotation Xrotation Yrotation
                JOINT RightHandThumb2
                {
                  OFFSET -2.665 -0.000 0.000
                  CHANNELS 6 Xposition Yposition Zposition Zrotation Xrotation Yrotation
                  JOINT RightHandThumb3
                  {
                    OFFSET -2.543 0.000 0.000
                    CHANNELS 6 Xposition Yposition Zposition Zrotation Xrotation Yrotation
                    End Site
                    {
                      OFFSET -2.667 0.000 0.000
                    }
                  }
                }
              }
              JOINT RightHandIndex1
              {
                OFFSET -9.232 -0.301 2.144
                CHANNELS 6 Xposition Yposition Zposition Zrotation Xrotation Yrotation
                JOINT RightHandIndex2
                {
                  OFFSET -4.225 -0.000 0.000
                  CHANNELS 6 Xposition Yposition Zposition Zrotation Xrotation Yrotation
                  JOINT RightHandIndex3
                  {
                    OFFSET -2.654 0.000 0.000
                    CHANNELS 6 Xposition Yposition Zposition Zrotation Xrotation Yrotation
                    End Site
                    {
                      OFFSET -1.958 -0.000 0.000
                    }
                  }
                }
              }
              JOINT RightHandMiddle1
              {
                OFFSET -8.920 -0.000 -0.000
                CHANNELS 6 Xposition Yposition Zposition Zrotation Xrotation Yrotation
                JOINT RightHandMiddle2
                {
                  OFFSET -4.863 -0.000 -0.000
                  CHANNELS 6 Xposition Yposition Zposition Zrotation Xrotation Yrotation
                  JOINT RightHandMiddle3
                  {
                    OFFSET -2.765 -0.000 0.000
                    CHANNELS 6 Xposition Yposition Zposition Zrotation Xrotation Yrotation
                    End Site
                    {
                      OFFSET -2.006 0.000 -0.000
                    }
                  }
                }
              }
              JOINT RightHandRing1
              {
                OFFSET -8.689 -0.126 -2.087
                CHANNELS 6 Xposition Yposition Zposition Zrotation Xrotation Yrotation
                JOINT RightHandRing2
                {
                  OFFSET -4.538 -0.000 0.000
                  CHANNELS 6 Xposition Yposition Zposition Zrotation Xrotation Yrotation
                  JOINT RightHandRing3
                  {
                    OFFSET -2.305 0.000 0.000
                    CHANNELS 6 Xposition Yposition Zposition Zrotation Xrotation Yrotation
                    End Site
                    {
                      OFFSET -1.923 0.000 -0.000
                    }
                  }
                }
              }
              JOINT RightHandPinky1
              {
                OFFSET -8.391 -0.817 -3.758
                CHANNELS 6 Xposition Yposition Zposition Zrotation Xrotation Yrotation
                JOINT RightHandPinky2
                {
                  OFFSET -3.044 -0.000 0.000
                  CHANNELS 6 Xposition Yposition Zposition Zrotation Xrotation Yrotation
                  JOINT RightHandPinky3
                  {
                    OFFSET -1.975 0.000 0.000
                    CHANNELS 6 Xposition Yposition Zposition Zrotation Xrotation Yrotation
                    End Site
                    {
                      OFFSET -1.667 0.000 -0.000
                    }
                  }
                }
              }
            }
          }
        }
      }
      JOINT Neck
      {
        OFFSET 0.000 0.729 0.000
        CHANNELS 6 Xposition Yposition Zposition Zrotation Xrotation Yrotation
        JOINT Head
        {
          OFFSET 0.000 6.237 0.000
          CHANNELS 6 Xposition Yposition Zposition Zrotation Xrotation Yrotation
          End Site
          {
            OFFSET 0.000 12.466 0.000
          }
        }
      }
    }
  }
}
MOTION
Frames:	4
Frame Time:	0.033333
-46.95021 74.48082 -185.30371 1.46145 18.30524 39.87785 6.20617 0.74739 2.72281 52.21791 -6.98426 33.82058 -1.22781 -22.00988 -2.02312 -88.28849 33.82978 -8.59125 -0.05741 -36.51533 -0.15003 -1.55589 25.50998 5.57678 -8.38414 2.58612 2.68926 -2.33869 -29.12394 8.84766 -0.02060 -25.84640 -0.01975 0.70774 23.79803 -10.05315 -0.04392 -35.60277 -0.00730 -0.07211 10.64218 1.77816 0.11029 26.83316 -0.05403 -0.45967 1.94973 4.05848 0.06263 20.40890 -0.06641 0.36323 2.17361 3.75955 1.42210 -0.65331 0.53172 -20.67649 7.33759 -19.12044 15.04071 -0.05357 -0.00222 -33.45946 18.82288 1.99005 13.79554 0.05756 -0.01272 -33.40300 4.88661 -25.16119 18.39025 -0.69310 0.00949 8.57186 -15.31460 4.06267 4.87702 -1.04400 3.60799 -24.89607 4.04204 -9.06254 2.66501 0.00000 0.00001 -0.00000 0.00000 9.93312 2.54298 0.00000 0.00001 0.00000 0.00000 15.60194 9.23202 -0.30100 2.14399 -20.80259 -0.00000 -0.00000 4.22499 0.00000 -0.00001 -25.86947 -0.00001 0.00000 2.65399 -0.00001 0.00002 -30.44209 2.50417 -4.25170 8.92000 0.00000 0.00000 -20.80259 -0.00000 -0.00000 4.86301 0.00001 0.00001 -25.86947 -0.00001 0.00000 2.76499 0.00001 0.00000 -30.44209 2.50417 -4.25170 8.68902 -0.12600 -2.08702 -20.80259 -0.00000 -0.00000 4.53801 0.00000 0.00000 -25.86947 -0.00001 0.00000 2.30500 0.00001 0.00001 -30.44209 2.50417 -4.25170 8.39101 -0.81700 -3.75803 -20.80259 -0.00000 -0.00000 3.04400 0.00000 0.00000 -25.86947 -0.00001 0.00000 1.97499 0.00001 0.00000 -30.44209 2.50417 -4.25170 -1.32894 0.01010 0.53380 -1.17933 0.62441 22.13297 -12.83626 0.03121 0.07775 61.46341 -9.92356 7.27584 -20.22469 0.06133 -0.17435 84.76335 25.43138 59.28660 -18.67380 0.00352 0.13111 46.69647 20.11689 -16.19615 -4.87700 -1.04401 3.60800 37.43813 21.26626 8.20657 -2.66500 -0.00001 0.00000 0.00000 -0.00000 -5.00000 -2.54300 0.00000 0.00000 0.00001 0.00000 -60.00000 -9.23201 -0.30103 2.14398 80.00000 -0.00000 0.00001 -4.22499 -0.00000 0.00001 90.00000 0.00000 0.00001 -2.65400 0.00000 0.00000 70.00000 -0.00000 -0.00000 -8.92000 -0.00002 -0.00001 80.00000 -0.00000 0.00001 -4.86300 -0.00000 -0.00001 90.00000 0.00000 0.00001 -2.76500 -0.00002 0.00000 70.00000 -0.00000 -0.00000 -8.68901 -0.12600 -2.08701 80.00000 -0.00000 0.00001 -4.53799 -0.00000 0.00000 90.00000 0.00000 0.00001 -2.30500 0.00000 0.00001 70.00000 -0.00000 -0.00000 -8.39101 -0.81701 -3.75801 80.00000 -0.00000 0.00001 -3.04399 -0.00000 0.00000 90.00000 0.00000 0.00001 -1.97499 0.00000 0.00001 70.00000 -0.00000 -0.00000 0.00501 0.67914 0.00046 0.00531 0.00763 0.00564 0.01264 6.11134 -0.02994 -37.44284 -6.87841 -23.16879 
-46.62888 74.54812 -184.91898 0.56405 16.80534 42.64829 5.92044 0.66355 2.72719 44.68346 -4.58746 29.96003 -1.54140 -23.39078 -2.48760 -79.47205 37.32655 -15.74932 -0.14955 -36.12029 -0.20083 -1.56117 19.80564 7.97270 -8.41903 2.61568 2.66475 -2.15587 -28.46302 7.17530 -0.01710 -26.35541 -0.00128 0.38481 24.99124 -9.68246 -0.05004 -35.62172 0.00947 -0.11002 9.38676 2.25854 0.11344 27.09059 -0.08247 -0.70245 1.61790 3.94177 0.04497 20.51779 -0.08904 0.63947 1.97815 3.62961 1.36726 -0.64745 0.56841 -21.09297 8.23947 -20.87703 14.69523 0.00116 0.01043 -36.47061 18.72607 5.61405 13.70483 0.03723 0.01655 -34.23369 5.41135 -25.24215 18.72650 -0.64160 0.05446 7.26518 -14.67351 1.70502 4.87702 -1.04400 3.60799 -24.80703 4.10641 -9.06909 2.66501 0.00000 0.00001 -0.00000 0.00000 9.95897 2.54298 0.00000 0.00001 0.00000 0.00000 15.36928 9.23202 -0.30100 2.14399 -20.49237 -0.00000 -0.00000 4.22499 0.00000 -0.00001 -25.53341 -0.00001 0.00000 2.65399 -0.00001 0.00002 -30.23453 2.50364 -4.28304 8.92000 0.00000 0.00000 -20.49237 -0.00000 -0.00000 4.86301 0.00001 0.00001 -25.53341 -0.00001 0.00000 2.76499 0.00001 0.00000 -30.23453 2.50364 -4.28304 8.68902 -0.12600 -2.08702 -20.49237 -0.00000 -0.00000 4.53801 0.00000 0.00000 -25.53341 -0.00001 0.00000 2.30500 0.00001 0.00001 -30.23453 2.50364 -4.28304 8.39101 -0.81700 -3.75803 -20.49237 -0.00000 -0.00000 3.04400 0.00000 0.00000 -25.53341 -0.00001 0.00000 1.97499 0.00001 0.00000 -30.23453 2.50364 -4.28304 -1.36050 -0.05401 0.56958 1.33626 1.54004 22.53306 -13.28420 0.02446 0.14361 61.82334 -8.93289 8.56597 -20.25503 -0.00313 -0.19043 86.13893 25.78637 57.95103 -18.79903 -0.13586 0.10780 38.91133 20.99103 -13.43743 -4.87700 -1.04401 3.60800 37.43813 21.26626 8.20657 -2.66500 -0.00001 0.00000 0.00000 -0.00000 -5.00000 -2.54300 0.00000 0.00000 0.00001 0.00000 -60.00000 -9.23201 -0.30103 2.14398 80.00000 -0.00000 0.00001 -4.22499 -0.00000 0.00001 90.00000 0.00000 0.00001 -2.65400 0.00000 0.00000 70.00000 -0.00000 -0.00000 -8.92000 -0.00002 -0.00001 80.00000 -0.00000 0.00001 -4.86300 -0.00000 -0.00001 90.00000 0.00000 0.00001 -2.76500 -0.00002 0.00000 70.00000 -0.00000 -0.00000 -8.68901 -0.12600 -2.08701 80.00000 -0.00000 0.00001 -4.53799 -0.00000 0.00000 90.00000 0.00000 0.00001 -2.30500 0.00000 0.00001 70.00000 -0.00000 -0.00000 -8.39101 -0.81701 -3.75801 80.00000 -0.00000 0.00001 -3.04399 -0.00000 0.00000 90.00000 0.00000 0.00001 -1.97499 0.00000 0.00001 70.00000 -0.00000 -0.00000 0.00507 0.68056 0.00035 0.00531 0.00763 0.00564 0.02973 6.14048 -0.03295 -34.52645 -7.17942 -23.85822 
-46.17603 74.89708 -183.31078 -0.28756 13.04823 48.32709 5.51767 0.56572 2.58088 39.46808 -3.68195 22.89598 -1.34136 -23.58667 -2.07661 -67.57521 38.02143 -21.68973 -0.29864 -35.98190 -0.21017 0.66289 9.40999 11.28382 -8.61201 2.31998 2.54853 0.10307 -23.58370 3.88521 -0.01678 -26.96986 -0.15600 -1.77861 23.12080 -9.83042 -0.03420 -35.35286 0.04350 -0.31868 8.52775 3.98856 -0.06601 26.82872 -0.22209 0.73875 2.66310 3.18207 0.01109 20.54222 -0.14240 0.32315 1.48810 3.13300 1.41459 -0.57763 0.55203 -18.98640 7.49274 -20.40749 14.58547 -0.07275 0.00079 -42.25824 22.23098 7.14996 13.60938 0.01339 0.03768 -32.46474 4.98086 -24.62700 19.04472 -0.52474 0.05747 13.02348 -13.86141 2.88039 4.87702 -1.04400 3.60799 -24.75264 4.14572 -9.07303 2.66501 0.00000 0.00001 -0.00000 0.00000 9.97476 2.54298 0.00000 0.00001 0.00000 0.00000 15.22713 9.23202 -0.30100 2.14399 -20.30285 -0.00000 -0.00000 4.22499 0.00000 -0.00001 -25.32808 -0.00001 0.00000 2.65399 -0.00001 0.00002 -30.10771 2.50358 -4.30222 8.92000 0.00000 0.00000 -20.30285 -0.00000 -0.00000 4.86301 0.00001 0.00001 -25.32808 -0.00001 0.00000 2.76499 0.00001 0.00000 -30.10771 2.50358 -4.30222 8.68902 -0.12600 -2.08702 -20.30285 -0.00000 -0.00000 4.53801 0.00000 0.00000 -25.32808 -0.00001 0.00000 2.30500 0.00001 0.00001 -30.10771 2.50358 -4.30222 8.39101 -0.81700 -3.75803 -20.30285 -0.00000 -0.00000 3.04400 0.00000 0.00000 -25.32808 -0.00001 0.00000 1.97499 0.00001 0.00000 -30.10771 2.50358 -4.30222 -1.28114 -0.08307 0.55413 2.87166 2.17417 23.15524 -12.78777 0.00689 0.05760 61.85302 -10.80812 7.91206 -20.36029 -0.02497 -0.13814 88.63916 25.49807 56.31486 -19.03549 -0.17638 0.06501 42.51764 29.76875 -14.46771 -4.87700 -1.04401 3.60800 37.43813 21.26626 8.20657 -2.66500 -0.00001 0.00000 0.00000 -0.00000 -5.00000 -2.54300 0.00000 0.00000 0.00001 0.00000 -60.00000 -9.23201 -0.30103 2.14398 80.00000 -0.00000 0.00001 -4.22499 -0.00000 0.00001 90.00000 0.00000 0.00001 -2.65400 0.00000 0.00000 70.00000 -0.00000 -0.00000 -8.92000 -0.00002 -0.00001 80.00000 -0.00000 0.00001 -4.86300 -0.00000 -0.00001 90.00000 0.00000 0.00001 -2.76500 -0.00002 0.00000 70.00000 -0.00000 -0.00000 -8.68901 -0.12600 -2.08701 80.00000 -0.00000 0.00001 -4.53799 -0.00000 0.00000 90.00000 0.00000 0.00001 -2.30500 0.00000 0.00001 70.00000 -0.00000 -0.00000 -8.39101 -0.81701 -3.75801 80.00000 -0.00000 0.00001 -3.04399 -0.00000 0.00000 90.00000 0.00000 0.00001 -1.97499 0.00000 0.00001 70.00000 -0.00000 -0.00000 0.00512 0.68226 0.00022 0.00531 0.00763 0.00564 0.03804 6.14297 -0.05084 -31.15691 -6.71997 -26.13559 
-45.74764 75.04958 -181.99310 -0.50199 9.93065 51.32320 4.97098 0.42481 2.63586 36.89517 -0.05605 20.20618 -1.05968 -23.88094 -1.59150 -59.41773 37.73008 -26.11054 -0.32138 -36.00631 -0.16797 2.10769 2.26994 12.85333 -8.48536 1.95485 2.49952 2.75438 -19.99487 4.03685 -0.02459 -27.59297 -0.21529 -3.37704 22.20377 -10.38131 0.00177 -34.79087 0.08005 -0.36577 7.68755 4.76857 -0.09332 26.83511 -0.24849 1.12962 3.07150 3.42987 -0.00059 20.67369 -0.17314 0.16347 1.01679 3.56355 1.45177 -0.52520 0.54333 -17.67594 6.90647 -20.14969 14.51040 -0.10777 0.01184 -46.46267 24.16909 10.21714 13.68534 -0.02277 -0.02873 -30.13941 5.75647 -23.96803 19.32433 -0.37179 -0.05312 17.95568 -12.44379 2.99956 4.87702 -1.04400 3.60799 -24.71911 4.17008 -9.07368 2.66501 0.00000 0.00001 -0.00000 0.00000 9.98454 2.54298 0.00000 0.00001 0.00000 0.00000 15.13917 9.23202 -0.30100 2.14399 -20.18555 -0.00000 -0.00000 4.22499 0.00000 -0.00001 -25.20101 -0.00001 0.00000 2.65399 -0.00001 0.00002 -30.02922 2.50354 -4.31410 8.92000 0.00000 0.00000 -20.18555 -0.00000 -0.00000 4.86301 0.00001 0.00001 -25.20101 -0.00001 0.00000 2.76499 0.00001 0.00000 -30.02922 2.50354 -4.31410 8.68902 -0.12600 -2.08702 -20.18555 -0.00000 -0.00000 4.53801 0.00000 0.00000 -25.20101 -0.00001 0.00000 2.30500 0.00001 0.00001 -30.02922 2.50354 -4.31410 8.39101 -0.81700 -3.75803 -20.18555 -0.00000 -0.00000 3.04400 0.00000 0.00000 -25.20101 -0.00001 0.00000 1.97499 0.00001 0.00000 -30.02922 2.50354 -4.31410 -1.24009 -0.11799 0.54984 4.74410 2.90692 23.28415 -12.67288 0.00535 0.03056 61.88099 -10.68587 8.76219 -20.38537 -0.11486 -0.05272 88.66198 24.60708 56.02811 -19.20491 -0.15433 0.00209 52.73151 39.45155 -16.72329 -4.87700 -1.04401 3.60800 37.43813 21.26626 8.20657 -2.66500 -0.00001 0.00000 0.00000 -0.00000 -5.00000 -2.54300 0.00000 0.00000 0.00001 0.00000 -60.00000 -9.23201 -0.30103 2.14398 80.00000 -0.00000 0.00001 -4.22499 -0.00000 0.00001 90.00000 0.00000 0.00001 -2.65400 0.00000 0.00000 70.00000 -0.00000 -0.00000 -8.92000 -0.00002 -0.00001 80.00000 -0.00000 0.00001 -4.86300 -0.00000 -0.00001 90.00000 0.00000 0.00001 -2.76500 -0.00002 0.00000 70.00000 -0.00000 -0.00000 -8.68901 -0.12600 -2.08701 80.00000 -0.00000 0.00001 -4.53799 -0.00000 0.00000 90.00000 0.00000 0.00001 -2.30500 0.00000 0.00001 70.00000 -0.00000 -0.00000 -8.39101 -0.81701 -3.75801 80.00000 -0.00000 0.00001 -3.04399 -0.00000 0.00000 90.00000 0.00000 0.00001 -1.97499 0.00000 0.00001 70.00000 -0.00000 -0.00000 0.00518 0.68559 0.00008 0.00531 0.00763 0.00564 0.05199 6.18035 -0.06731 -27.49595 -6.16644 -28.00480 
